<?xml version="1.0" standalone="no"?><!DOCTYPE svg PUBLIC "-//W3C//DTD SVG 1.1//EN" "http://www.w3.org/Graphics/SVG/1.1/DTD/svg11.dtd"><svg t="1744889757502" class="icon" viewBox="0 0 1024 1024" version="1.1" xmlns="http://www.w3.org/2000/svg" p-id="20539" xmlns:xlink="http://www.w3.org/1999/xlink" width="200" height="200"><path d="M478 512.6L206 240.6c-18.8-18.8-18.8-49.2 0-67.8l45.2-45.2c18.8-18.8 49.2-18.8 67.8 0l192.8 192.8 192.8-192.8c18.8-18.8 49.2-18.8 67.8 0L818 172.6c18.8 18.8 18.8 49.2 0 67.8l-272 272c-18.8 19-49.2 19-68 0.2z m68 384l272-272c18.8-18.8 18.8-49.2 0-67.8l-45.2-45.2c-18.8-18.8-49.2-18.8-67.8 0L512 704.2l-192.8-192.8c-18.8-18.8-49.2-18.8-67.8 0L206 556.6c-18.8 18.8-18.8 49.2 0 67.8l272 272c18.8 19 49.2 19 68 0.2z" fill="" p-id="20540"></path></svg>