<?xml version="1.0" standalone="no"?><!DOCTYPE svg PUBLIC "-//W3C//DTD SVG 1.1//EN" "http://www.w3.org/Graphics/SVG/1.1/DTD/svg11.dtd"><svg t="1744802158402" class="icon" viewBox="0 0 1024 1024" version="1.1" xmlns="http://www.w3.org/2000/svg" p-id="15348" xmlns:xlink="http://www.w3.org/1999/xlink" width="200" height="200"><path d="M444.95 133.8l44.4-44.4c18.8-18.8 49.2-18.8 67.8 0L945.95 478c18.8 18.8 18.8 49.2 0 67.8L557.15 934.6c-18.8 18.8-49.2 18.8-67.8 0l-44.4-44.4c-19-19-18.6-50 0.8-68.6L686.75 592H111.95c-26.6 0-48-21.4-48-48v-64c0-26.6 21.4-48 48-48h574.8L445.75 202.4c-19.6-18.6-20-49.6-0.8-68.6z" fill="" p-id="15349"></path></svg>