<?xml version="1.0" standalone="no"?><!DOCTYPE svg PUBLIC "-//W3C//DTD SVG 1.1//EN" "http://www.w3.org/Graphics/SVG/1.1/DTD/svg11.dtd"><svg t="1744891130973" class="icon" viewBox="0 0 1024 1024" version="1.1" xmlns="http://www.w3.org/2000/svg" p-id="20686" xmlns:xlink="http://www.w3.org/1999/xlink" width="200" height="200"><path d="M620.12 512L952.96 179.14c9.38-9.38 9.38-24.58 0-33.94-65.6-65.6-171.98-65.6-237.58 0L484.36 376.24l-49.72-49.72c8.62-21.84 13.36-45.62 13.36-70.52 0-106.04-85.96-192-192-192S64 149.96 64 256s85.96 192 192 192c9.08 0 17.98-0.64 26.72-1.86L348.58 512l-65.86 65.86c-8.74-1.22-17.66-1.86-26.72-1.86-106.04 0-192 85.96-192 192s85.96 192 192 192 192-85.96 192-192c0-24.9-4.74-48.68-13.36-70.52l49.72-49.72L715.38 878.8c65.6 65.6 171.98 65.6 237.58 0 9.38-9.36 9.38-24.56 0-33.94L620.12 512zM256 320c-35.28 0-64-28.72-64-64s28.72-64 64-64 64 28.72 64 64-28.72 64-64 64z m0 512c-35.28 0-64-28.72-64-64s28.72-64 64-64 64 28.72 64 64-28.72 64-64 64z" fill="" p-id="20687"></path></svg>