<?xml version="1.0" standalone="no"?><!DOCTYPE svg PUBLIC "-//W3C//DTD SVG 1.1//EN" "http://www.w3.org/Graphics/SVG/1.1/DTD/svg11.dtd"><svg t="1745312867964" class="icon" viewBox="0 0 1024 1024" version="1.1" xmlns="http://www.w3.org/2000/svg" p-id="15491" xmlns:xlink="http://www.w3.org/1999/xlink" width="200" height="200"><path d="M212.30985 505.4c-32.2-38-49.4-91.8-49.6-159.8 0-200.8 150.4-306.2 334.4-306.2 197.2-3.2 313.6 98 368.6 141.2l-101 144.2-74.6-49.2 53.8-77.2c-73-48-158.8-73-246-71.6-101.4-1.6-223.4 54.4-223.4 152.4 0 37.4 22.4 41.4 57.2 31.2 46.6-10.6 83.8 1.2 111.6 28 52.8 48.6 46.4 135.2-1.4 183.8-58.4 59-170.4 54.6-229.6-16.8z m635.4 11.8c-31-37.6-77.8-58.8-126.4-57.2-76.2-4-142.2 56-141 134.4-1.4 33.6 12 66 36.8 88.6 28.2 27.8 66 39.4 112.6 28.8 34.8-10.2 57.2-6.2 57.2 31.2 0 8.6-1 17-2.8 25.4-33.4 81.8-119 128.8-242.8 128.8-103.8 0.4-204.8-32.8-288.2-94.6l67.4-78.8-71.2-54.8L127.70985 812.6l30.8 27.6c105 93.6 240.8 145 381.4 144.4 102.8 0 188.8-21 267.2-88.2 114.2-102.8 108.4-298.4 40.6-379.2z" fill="" p-id="15492"></path></svg>