<?xml version="1.0" standalone="no"?><!DOCTYPE svg PUBLIC "-//W3C//DTD SVG 1.1//EN" "http://www.w3.org/Graphics/SVG/1.1/DTD/svg11.dtd"><svg t="1744891205594" class="icon" viewBox="0 0 1024 1024" version="1.1" xmlns="http://www.w3.org/2000/svg" p-id="20833" xmlns:xlink="http://www.w3.org/1999/xlink" width="200" height="200"><path d="M0 336v-32c0-26.51 21.49-48 48-48h720V160c0-42.734 51.798-64.084 81.942-33.942l160 160c18.744 18.746 18.744 49.138 0 67.882l-160 160C819.912 543.964 768 522.912 768 480v-96H48c-26.51 0-48-21.49-48-48z m976 304H256v-96c0-42.628-51.724-64.16-81.942-33.942l-160 160c-18.744 18.746-18.744 49.138 0 67.882l160 160C204.114 927.994 256 906.874 256 864v-96h720c26.51 0 48-21.49 48-48v-32c0-26.51-21.49-48-48-48z" fill="" p-id="20834"></path></svg>