<?xml version="1.0" standalone="no"?><!DOCTYPE svg PUBLIC "-//W3C//DTD SVG 1.1//EN" "http://www.w3.org/Graphics/SVG/1.1/DTD/svg11.dtd"><svg t="1744865596568" class="icon" viewBox="0 0 1024 1024" version="1.1" xmlns="http://www.w3.org/2000/svg" p-id="15835" xmlns:xlink="http://www.w3.org/1999/xlink" width="200" height="200"><path d="M576 272V0h-127.2v64h-64V0H176C149.4 0 128 21.4 128 48v928c0 26.6 21.4 48 48 48h672c26.6 0 48-21.4 48-48V320H624c-26.4 0-48-21.6-48-48zM319.8 64h64v64h-64V64z m64.6 768c-66.4 0-116-60.8-102.8-125.8L320.8 512v-64h64v-64h-64v-64h64v-64h-64V192h64V128h64v64h-64v64h64v64h-64v64h64v64h-64v64h44.2c11.4 0 21.4 8.2 23.6 19.4l34.6 175.4c12.8 64.8-36.8 125.2-102.8 125.2z m65.4-106c0 29.8-29 54-64.8 54S320 756 320 726c0-29.8 29-54 64.8-54s65 24.2 65 54zM896 243.8v12.2H640V0h12.2c12.8 0 25 5 34 14l195.8 196c9 9 14 21.2 14 33.8z" fill="" p-id="15836"></path></svg>