<?xml version="1.0" standalone="no"?><!DOCTYPE svg PUBLIC "-//W3C//DTD SVG 1.1//EN" "http://www.w3.org/Graphics/SVG/1.1/DTD/svg11.dtd"><svg t="1744865638352" class="icon" viewBox="0 0 1152 1024" version="1.1" xmlns="http://www.w3.org/2000/svg" p-id="15982" xmlns:xlink="http://www.w3.org/1999/xlink" width="225" height="200"><path d="M768 243.8c0-12.6-5-24.8-14-33.8L558.2 14c-9-9-21.2-14-34-14H512v256h256v-12.2zM384 672v-64c0-17.68 14.32-32 32-32h352V320H496c-26.4 0-48-21.6-48-48V0H48C21.4 0 0 21.4 0 48v928c0 26.6 21.4 48 48 48h672c26.6 0 48-21.4 48-48V704H416c-17.68 0-32-14.32-32-32z m758.1-56.04l-191.4-192.86c-20.12-20.28-54.72-6.02-54.72 22.54V576H768v128h127.98v130.36c0 28.56 34.58 42.82 54.72 22.54l191.4-192.84c13.2-13.32 13.2-34.8 0-48.1z" fill="" p-id="15983"></path></svg>