<?xml version="1.0" standalone="no"?><!DOCTYPE svg PUBLIC "-//W3C//DTD SVG 1.1//EN" "http://www.w3.org/Graphics/SVG/1.1/DTD/svg11.dtd"><svg t="1746279887738" class="icon" viewBox="0 0 1152 1024" version="1.1" xmlns="http://www.w3.org/2000/svg" p-id="15050" xmlns:xlink="http://www.w3.org/1999/xlink" width="225" height="200"><path d="M1148.2 560.74L1057.5 197.32c-11.82-47.4-43.18-88.1-86-111.62-42.88-23.46-93.94-28.22-140.38-12.66l-30.5 10.16c-16.78 5.58-25.84 23.72-20.24 40.48l10.12 30.36c5.58 16.76 23.7 25.82 40.46 20.24l26.36-8.78c21.74-7.24 46-7.14 66.32 3.46 20.58 10.74 35.14 29.12 40.74 51.64l76.92 307.64c-44.38-13.62-99.58-24.92-162.4-24.92-69.54 0-147.96 14.04-229.7 53.48h-146.36c-81.74-39.48-160.16-53.5-229.72-53.5-62.84 0-118.04 11.3-162.42 24.92l76.92-307.66c5.58-22.5 20.18-40.9 40.76-51.62 20.32-10.6 44.56-10.7 66.3-3.46l26.34 8.78c16.76 5.58 34.88-3.48 40.46-20.24l10.12-30.36c5.6-16.76-3.46-34.9-20.24-40.48l-30.5-10.16c-46.44-15.56-97.5-10.82-140.38 12.66-42.82 23.54-74.18 64.22-86 111.6L3.8 560.74A128.436 128.436 0 0 0 0 591.72v140.5C0 858.02 103.16 960 230.4 960h74.24c120.56 0 220.74-91.88 229.76-210.74l5.86-77.26h71.5l5.86 77.26C626.62 868.12 726.8 960 847.36 960h74.24c127.24 0 230.4-101.98 230.4-227.76v-140.5c0-10.46-1.28-20.86-3.8-31z m-741.44 178.84c-3.94 51.82-48.8 92.42-102.12 92.42H230.4C173.94 832 128 787.24 128 732.22v-75.08c36.24-12.98 86.84-25.84 145.16-25.84 47.72 0 94.52 8.66 139.86 25.84l-6.26 82.44zM1024 732.24c0 55.02-45.94 99.76-102.4 99.76h-74.24c-53.34 0-98.2-40.6-102.12-92.42l-6.26-82.44c45.34-17.18 92.16-25.84 139.9-25.84 58.24 0 108.86 12.88 145.1 25.86v75.08z" fill="" p-id="15051"></path></svg>