<?xml version="1.0" standalone="no"?><!DOCTYPE svg PUBLIC "-//W3C//DTD SVG 1.1//EN" "http://www.w3.org/Graphics/SVG/1.1/DTD/svg11.dtd"><svg t="1744889502128" class="icon" viewBox="0 0 1152 1024" version="1.1" xmlns="http://www.w3.org/2000/svg" p-id="18628" xmlns:xlink="http://www.w3.org/1999/xlink" width="225" height="200"><path d="M846.998379 0.00196C678.9987 0.601959 543.998959 139.001694 543.998959 307.001372V448.001102H95.999816c-52.999899 0-95.999816 42.999918-95.999816 95.999817v383.999265c0 52.999899 42.999918 95.999816 95.999816 95.999816h703.998653c52.999899 0 95.999816-42.999918 95.999816-95.999816V544.000919c0-52.999899-42.999918-95.999816-95.999816-95.999817h-95.999816v-142.199727c0-79.199848 63.399879-144.999722 142.599727-145.799721 79.999847-0.799998 145.399722 64.199877 145.399721 143.999724v159.999694c0 26.599949 21.399959 47.999908 47.999908 47.999908h63.999878c26.599949 0 47.999908-21.399959 47.999908-47.999908v-159.999694C1151.997795 136.0017 1014.998057-0.598039 846.998379 0.00196z" fill="" p-id="18629"></path></svg>