<?xml version="1.0" standalone="no"?><!DOCTYPE svg PUBLIC "-//W3C//DTD SVG 1.1//EN" "http://www.w3.org/Graphics/SVG/1.1/DTD/svg11.dtd"><svg t="1744889488091" class="icon" viewBox="0 0 1024 1024" version="1.1" xmlns="http://www.w3.org/2000/svg" p-id="18481" xmlns:xlink="http://www.w3.org/1999/xlink" width="200" height="200"><path d="M864 448h-48v-144C816 136.4 679.6 0 512 0S208 136.4 208 304v144H160c-53 0-96 43-96 96v384c0 53 43 96 96 96h704c53 0 96-43 96-96V544c0-53-43-96-96-96z m-208 0H368v-144c0-79.4 64.6-144 144-144s144 64.6 144 144v144z" fill="" p-id="18482"></path></svg>