<?xml version="1.0" standalone="no"?><!DOCTYPE svg PUBLIC "-//W3C//DTD SVG 1.1//EN" "http://www.w3.org/Graphics/SVG/1.1/DTD/svg11.dtd"><svg t="1744889574919" class="icon" viewBox="0 0 1024 1024" version="1.1" xmlns="http://www.w3.org/2000/svg" p-id="19216" xmlns:xlink="http://www.w3.org/1999/xlink" width="200" height="200"><path d="M328.2 320H24c-13.2 0-24-10.8-24-24V136c0-39.8 32.2-72 72-72h208c39.8 0 72 32.2 72 72v160c0.2 13.2-10.6 24-23.8 24z m696-24V135.8c0-39.8-32.2-72-72-72h-208c-39.8 0-72 32.2-72 72v160c0 13.2 10.8 24 24 24h304c13.2 0.2 24-10.6 24-23.8z m-328 88c-13.2 0-24 10.8-24 24v104c0 256.2-320 255.8-320 0v-104c0-13.2-10.8-24-24-24h-304c-13.4 0-24 10.8-24 24.2 0.2 42.8 1.2 80.6 0 106.6C0.2 816 272.6 1008 513.8 1008 755 1008 1024 816 1024 514.6c-1.2-25.6-0.4-66 0-106.4 0-13.4-10.6-24.2-24-24.2H696.2z" fill="" p-id="19217"></path></svg>