<?xml version="1.0" standalone="no"?><!DOCTYPE svg PUBLIC "-//W3C//DTD SVG 1.1//EN" "http://www.w3.org/Graphics/SVG/1.1/DTD/svg11.dtd"><svg t="1744889425265" class="icon" viewBox="0 0 1024 1024" version="1.1" xmlns="http://www.w3.org/2000/svg" p-id="18187" xmlns:xlink="http://www.w3.org/1999/xlink" width="200" height="200"><path d="M1023.961881 64.036987c0-43.419232-42.199253-74.01869-83.198528-61.01892L300.794677 192.014722c-26.599529 8.399851-44.799207 32.999416-44.799207 60.998921v522.830748c-20.099644-4.759916-41.439267-7.839861-63.998867-7.839861-106.038124 0-191.996603 57.298986-191.996603 127.997735s85.958479 127.997735 191.996603 127.997735 191.996603-57.298986 191.996602-127.997735V428.630535l511.99094-150.037345v369.253466c-20.099644-4.759916-41.439267-7.839861-63.998867-7.839861-106.038124 0-191.996603 57.298986-191.996603 127.997735s85.958479 127.997735 191.996603 127.997735 191.996603-57.298986 191.996602-127.997735l-0.019999-703.967543z" fill="" p-id="18188"></path></svg>