<?xml version="1.0" standalone="no"?><!DOCTYPE svg PUBLIC "-//W3C//DTD SVG 1.1//EN" "http://www.w3.org/Graphics/SVG/1.1/DTD/svg11.dtd"><svg t="1744889350995" class="icon" viewBox="0 0 1024 1024" version="1.1" xmlns="http://www.w3.org/2000/svg" p-id="17599" xmlns:xlink="http://www.w3.org/1999/xlink" width="200" height="200"><path d="M320 368c0-61.758 50.244-112 112-112h272V112c0-26.51-21.49-48-48-48h-161.22C472.612 25.78 431.274 0 384 0s-88.612 25.78-110.78 64H112C85.49 64 64 85.49 64 112v672c0 26.51 21.49 48 48 48h208V368z m64-288c26.51 0 48 21.49 48 48s-21.49 48-48 48-48-21.49-48-48 21.49-48 48-48z m368 496h208v400c0 26.51-21.49 48-48 48H432c-26.51 0-48-21.49-48-48V368c0-26.51 21.49-48 48-48h272v208c0 26.4 21.6 48 48 48z m208-76.118V512h-192v-192h12.118a48 48 0 0 1 33.94 14.058l131.882 131.882a48.004 48.004 0 0 1 14.06 33.942z" fill="" p-id="17600"></path></svg>