<?xml version="1.0" standalone="no"?><!DOCTYPE svg PUBLIC "-//W3C//DTD SVG 1.1//EN" "http://www.w3.org/Graphics/SVG/1.1/DTD/svg11.dtd"><svg t="1744889452928" class="icon" viewBox="0 0 1024 1024" version="1.1" xmlns="http://www.w3.org/2000/svg" p-id="18334" xmlns:xlink="http://www.w3.org/1999/xlink" width="200" height="200"><path d="M218.925844 488.090467l269.154743-269.114744-88.238276-88.238276-123.357591 123.35759a15.837691 15.837691 0 0 1-22.419562 0l-22.419562-22.419562c-6.199879-6.199879-6.199879-16.239683 0-22.419562l123.357591-123.357591-67.278686-67.298685C262.944985-6.179879 222.785769-6.179879 198.006253 18.599637L18.589757 198.016132c-24.759516 24.779516-24.779516 64.938732 0 89.718248l200.336087 200.356087z m776.924826-233.595438c37.519267-37.519267 37.499268-98.338079 0-135.857346l-90.498232-90.498233c-37.519267-37.519267-98.358079-37.519267-135.897346 0l-92.038203 92.018203 226.395579 226.395578 92.038202-92.058202zM632.157773 165.436769l-593.988398 593.9084L0.650108 974.220972c-5.059901 28.979434 20.179606 54.218941 49.179039 49.119041l214.895803-37.679264L858.553352 391.812347 632.157773 165.436769z m373.25271 570.84885l-67.278686-67.278686-123.35759 123.357591c-6.199879 6.199879-16.239683 6.199879-22.419562 0l-22.419563-22.419562c-6.179879-6.199879-6.179879-16.239683 0-22.419562l123.357591-123.357591-88.278276-88.278276L535.859654 805.004277l200.416086 200.396086c24.779516 24.779516 64.938732 24.779516 89.718248 0l179.416495-179.396496c24.779516-24.779516 24.779516-64.938732 0-89.718248z" fill="" p-id="18335"></path></svg>