<?xml version="1.0" standalone="no"?><!DOCTYPE svg PUBLIC "-//W3C//DTD SVG 1.1//EN" "http://www.w3.org/Graphics/SVG/1.1/DTD/svg11.dtd"><svg t="1745072992993" class="icon" viewBox="0 0 1024 1024" version="1.1" xmlns="http://www.w3.org/2000/svg" p-id="15050" xmlns:xlink="http://www.w3.org/1999/xlink" width="200" height="200"><path d="M432 520c0 30.928-25.072 56-56 56s-56-25.072-56-56c0-88.224 71.776-160 160-160s160 71.776 160 160c0 30.928-25.072 56-56 56s-56-25.072-56-56c0-26.468-21.534-48-48-48s-48 21.532-48 48z m48-352c-194.094 0-352 157.906-352 352 0 30.928 25.072 56 56 56s56-25.072 56-56c0-132.336 107.664-240 240-240s240 107.664 240 240c0 150.328-142.018 140.622-143.994 287.244L576 808c0 57.346-46.654 104-104 104-30.928 0-56 25.072-56 56s25.072 56 56 56c118.95 0 215.752-96.656 216-215.548 1.19-68.856 144-96.48 144-288.452 0-194.094-157.906-352-352-352z m-160 472c-35.346 0-64 28.654-64 64s28.654 64 64 64 64-28.654 64-64-28.654-64-64-64zM64 896c-35.346 0-64 28.654-64 64s28.654 64 64 64 64-28.654 64-64-28.654-64-64-64z m960-375.986c0-3.036-0.024-6.05-0.09-9.062C1020.152 281.05 872.314 76.94 655.988 3.022c-29.266-9.996-61.098 5.618-71.1 34.884-10 29.266 5.62 61.098 34.884 71.1 171.812 58.708 289.22 221.026 292.154 403.906l0.006 0.376c0.052 2.236 0.066 4.472 0.066 6.726 0 30.928 25.072 56 56 56s56.002-25.072 56.002-56zM305.942 878.058l-160-160L78.06 785.94l160 160 67.882-67.882z" fill="" p-id="15051"></path></svg>