<?xml version="1.0" standalone="no"?><!DOCTYPE svg PUBLIC "-//W3C//DTD SVG 1.1//EN" "http://www.w3.org/Graphics/SVG/1.1/DTD/svg11.dtd"><svg t="1744865554664" class="icon" viewBox="0 0 1024 1024" version="1.1" xmlns="http://www.w3.org/2000/svg" p-id="15541" xmlns:xlink="http://www.w3.org/1999/xlink" width="200" height="200"><path d="M448 376v432c0 13.254-10.746 24-24 24h-48c-13.254 0-24-10.746-24-24V376c0-13.254 10.746-24 24-24h48c13.254 0 24 10.746 24 24z m200-24h-48c-13.254 0-24 10.746-24 24v432c0 13.254 10.746 24 24 24h48c13.254 0 24-10.746 24-24V376c0-13.254-10.746-24-24-24z m264-192c26.51 0 48 21.49 48 48v24c0 13.254-10.746 24-24 24h-40v672c0 53.02-42.98 96-96 96H224c-53.02 0-96-42.98-96-96V256H88c-13.254 0-24-10.746-24-24v-24c0-26.51 21.49-48 48-48h148.822l68.036-113.392A96 96 0 0 1 411.178 0h201.646a96 96 0 0 1 82.32 46.608L763.178 160H912z m-539.222 0h278.446L616.32 101.826A12 12 0 0 0 606.03 96h-188.056a12 12 0 0 0-10.29 5.826L372.778 160zM800 256H224v660a12 12 0 0 0 12 12h552a12 12 0 0 0 12-12V256z" fill="" p-id="15542"></path></svg>